Renner-400-Book.ufo
<glyph name="numbersign" format="1">
  <advance width="605"/>
  <unicode hex="0023"/>
  <outline>
    <contour>
      <point x="75" y="440" type="line"/>
      <point x="75" y="505" type="line"/>
      <point x="570" y="505" type="line"/>
      <point x="570" y="440" type="line"/>
      <point x="430" y="440" type="line" smooth="yes"/>
      <point x="416" y="440" type="line" smooth="yes"/>
      <point x="224" y="440" type="line" smooth="yes"/>
      <point x="210" y="440" type="line" smooth="yes"/>
    </contour>
    <contour>
      <point x="35" y="200" type="line"/>
      <point x="35" y="265" type="line"/>
      <point x="166" y="265" type="line" smooth="yes"/>
      <point x="182" y="265" type="line" smooth="yes"/>
      <point x="382" y="265" type="line" smooth="yes"/>
      <point x="402" y="265" type="line" smooth="yes"/>
      <point x="530" y="265" type="line"/>
      <point x="530" y="200" type="line"/>
    </contour>
    <contour>
      <point x="455" y="700" type="line"/>
      <point x="530" y="700" type="line"/>
      <point x="360" y="0" type="line"/>
      <point x="285" y="0" type="line"/>
      <point x="340" y="228" type="line" smooth="yes"/>
      <point x="345" y="246" type="line" smooth="yes"/>
      <point x="397" y="462" type="line" smooth="yes"/>
      <point x="401" y="478" type="line" smooth="yes"/>
    </contour>
    <contour>
      <point x="245" y="700" type="line"/>
      <point x="320" y="700" type="line"/>
      <point x="267" y="482" type="line" smooth="yes"/>
      <point x="263" y="466" type="line" smooth="yes"/>
      <point x="209" y="244" type="line" smooth="yes"/>
      <point x="205" y="226" type="line" smooth="yes"/>
      <point x="150" y="0" type="line"/>
      <point x="75" y="0" type="line"/>
    </contour>
  </outline>
</glyph>
<glyph name="parenright" format="1">
  <advance width="310"/>
  <unicode hex="0029"/>
  <outline>
    <contour>
      <point x="105" y="-200" type="curve"/>
      <point x="30" y="-200" type="line"/>
      <point x="100" y="-50"/>
      <point x="130" y="120"/>
      <point x="130" y="290" type="curve" smooth="yes"/>
      <point x="130" y="460"/>
      <point x="100" y="630"/>
      <point x="30" y="780" type="curve"/>
      <point x="105" y="780" type="line"/>
      <point x="185" y="630"/>
      <point x="220" y="460"/>
      <point x="220" y="290" type="curve" smooth="yes"/>
      <point x="220" y="120"/>
      <point x="185" y="-50"/>
    </contour>
  </outline>
</glyph>
<glyph name="comma" format="1">
  <advance width="308"/>
  <unicode hex="002C"/>
  <outline>
    <contour>
      <point x="148" y="110" type="line"/>
      <point x="228" y="80" type="line"/>
      <point x="118" y="-170" type="line"/>
      <point x="60" y="-149" type="line"/>
    </contour>
  </outline>
</glyph>
<glyph name="colon" format="1">
  <advance width="300"/>
  <unicode hex="003A"/>
  <outline>
    <contour>
      <point x="95" y="40" type="curve" smooth="yes"/>
      <point x="95" y="70"/>
      <point x="120" y="95"/>
      <point x="150" y="95" type="curve" smooth="yes"/>
      <point x="180" y="95"/>
      <point x="205" y="70"/>
      <point x="205" y="40" type="curve" smooth="yes"/>
      <point x="205" y="10"/>
      <point x="180" y="-15"/>
      <point x="150" y="-15" type="curve" smooth="yes"/>
      <point x="120" y="-15"/>
      <point x="95" y="10"/>
    </contour>
    <contour>
      <point x="95" y="420" type="curve" smooth="yes"/>
      <point x="95" y="450"/>
      <point x="120" y="475"/>
      <point x="150" y="475" type="curve" smooth="yes"/>
      <point x="180" y="475"/>
      <point x="205" y="450"/>
      <point x="205" y="420" type="curve" smooth="yes"/>
      <point x="205" y="390"/>
      <point x="180" y="365"/>
      <point x="150" y="365" type="curve" smooth="yes"/>
      <point x="120" y="365"/>
      <point x="95" y="390"/>
    </contour>
  </outline>
</glyph>
<glyph name="question" format="1">
  <advance width="557"/>
  <unicode hex="003F"/>
  <outline>
    <contour>
      <point x="195" y="40" type="curve" smooth="yes"/>
      <point x="195" y="70"/>
      <point x="220" y="95"/>
      <point x="250" y="95" type="curve" smooth="yes"/>
      <point x="280" y="95"/>
      <point x="305" y="70"/>
      <point x="305" y="40" type="curve" smooth="yes"/>
      <point x="305" y="10"/>
      <point x="280" y="-15"/>
      <point x="250" y="-15" type="curve" smooth="yes"/>
      <point x="220" y="-15"/>
      <point x="195" y="10"/>
    </contour>
    <contour>
      <point x="198" y="345" type="line"/>
      <point x="288" y="345" type="line"/>
      <point x="278" y="170" type="line"/>
      <point x="218" y="170" type="line"/>
    </contour>
    <contour>
      <point x="416" y="500" type="curve" smooth="yes"/>
      <point x="416" y="586"/>
      <point x="359" y="635"/>
      <point x="269" y="635" type="curve" smooth="yes"/>
      <point x="202" y="635"/>
      <point x="156" y="602"/>
      <point x="125" y="552" type="curve"/>
      <point x="60" y="593" type="line"/>
      <point x="106" y="663"/>
      <point x="160" y="710"/>
      <point x="279" y="710" type="curve" smooth="yes"/>
      <point x="404" y="710"/>
      <point x="497" y="619"/>
      <point x="497" y="500" type="curve" smooth="yes"/>
      <point x="497" y="381"/>
      <point x="389" y="290"/>
      <point x="274" y="290" type="curve"/>
      <point x="224" y="345" type="line"/>
      <point x="344" y="345"/>
      <point x="416" y="424"/>
    </contour>
  </outline>
</glyph>
<glyph name="E" format="1">
  <advance width="550"/>
  <unicode hex="0045"/>
  <outline>
    <contour>
      <point x="127" y="0" type="line"/>
      <point x="127" y="80" type="line"/>
      <point x="480" y="80" type="line"/>
      <point x="480" y="0" type="line"/>
    </contour>
    <contour>
      <point x="127" y="620" type="line"/>
      <point x="127" y="700" type="line"/>
      <point x="480" y="700" type="line"/>
      <point x="480" y="620" type="line"/>
    </contour>
    <contour>
      <point x="127" y="340" type="line"/>
      <point x="127" y="420" type="line"/>
      <point x="460" y="420" type="line"/>
      <point x="460" y="340" type="line"/>
    </contour>
    <contour>
      <point x="80" y="700" type="line"/>
      <point x="165" y="700" type="line"/>
      <point x="165" y="0" type="line"/>
      <point x="80" y="0" type="line"/>
    </contour>
  </outline>
</glyph>
<glyph name="Q" format="1">
  <advance width="790"/>
  <unicode hex="0051"/>
  <outline>
    <contour>
      <point x="130" y="350" type="curve" smooth="yes"/>
      <point x="130" y="192"/>
      <point x="242" y="75"/>
      <point x="395" y="75" type="curve" smooth="yes"/>
      <point x="548" y="75"/>
      <point x="660" y="192"/>
      <point x="660" y="350" type="curve" smooth="yes"/>
      <point x="660" y="508"/>
      <point x="548" y="625"/>
      <point x="395" y="625" type="curve" smooth="yes"/>
      <point x="242" y="625"/>
      <point x="130" y="508"/>
    </contour>
    <contour>
      <point x="40" y="350" type="curve" smooth="yes"/>
      <point x="40" y="554"/>
      <point x="191" y="710"/>
      <point x="395" y="710" type="curve" smooth="yes"/>
      <point x="599" y="710"/>
      <point x="750" y="554"/>
      <point x="750" y="350" type="curve" smooth="yes"/>
      <point x="750" y="146"/>
      <point x="599" y="-10"/>
      <point x="395" y="-10" type="curve" smooth="yes"/>
      <point x="191" y="-10"/>
      <point x="40" y="146"/>
    </contour>
    <contour>
      <point x="379" y="300" type="line"/>
      <point x="489" y="300" type="line"/>
      <point x="789" y="0" type="line"/>
      <point x="679" y="0" type="line"/>
    </contour>
  </outline>
</glyph>
<glyph name="Y" format="1">
  <advance width="561"/>
  <unicode hex="0059"/>
  <outline>
    <contour>
      <point x="238" y="360" type="line"/>
      <point x="323" y="360" type="line"/>
      <point x="323" y="0" type="line"/>
      <point x="238" y="0" type="line"/>
    </contour>
    <contour>
      <point x="461" y="700" type="line"/>
      <point x="556" y="700" type="line"/>
      <point x="280" y="229" type="line"/>
      <point x="5" y="700" type="line"/>
      <point x="100" y="700" type="line"/>
      <point x="280" y="376" type="line"/>
    </contour>
  </outline>
</glyph>
<glyph name="bar" format="1">
  <advance width="274"/>
  <unicode hex="007C"/>
  <outline>
    <contour>
      <point x="100" y="785" type="line"/>
      <point x="174" y="785" type="line"/>
      <point x="174" y="-215" type="line"/>
      <point x="100" y="-215" type="line"/>
    </contour>
  </outline>
</glyph>
<glyph name="guillemotright" format="1">
  <advance width="510"/>
  <unicode hex="00BB"/>
  <outline>
    <contour>
      <point x="400" y="275" type="line"/>
      <point x="470" y="255" type="line"/>
      <point x="280" y="20" type="line"/>
      <point x="230" y="65" type="line"/>
    </contour>
    <contour>
      <point x="470" y="255" type="line"/>
      <point x="400" y="225" type="line"/>
      <point x="230" y="445" type="line"/>
      <point x="280" y="490" type="line"/>
    </contour>
    <contour>
      <point x="240" y="275" type="line"/>
      <point x="310" y="255" type="line"/>
      <point x="120" y="20" type="line"/>
      <point x="70" y="65" type="line"/>
    </contour>
    <contour>
      <point x="310" y="255" type="line"/>
      <point x="240" y="225" type="line"/>
      <point x="70" y="445" type="line"/>
      <point x="120" y="490" type="line"/>
    </contour>
  </outline>
</glyph>
<glyph name="Otilde" format="1">
  <advance width="790"/>
  <unicode hex="00D5"/>
  <outline>
    <contour>
      <point x="130" y="350" type="curve" smooth="yes"/>
      <point x="130" y="192"/>
      <point x="242" y="75"/>
      <point x="395" y="75" type="curve" smooth="yes"/>
      <point x="548" y="75"/>
      <point x="660" y="192"/>
      <point x="660" y="350" type="curve" smooth="yes"/>
      <point x="660" y="508"/>
      <point x="548" y="625"/>
      <point x="395" y="625" type="curve" smooth="yes"/>
      <point x="242" y="625"/>
      <point x="130" y="508"/>
    </contour>
    <contour>
      <point x="40" y="350" type="curve" smooth="yes"/>
      <point x="40" y="554"/>
      <point x="191" y="710"/>
      <point x="395" y="710" type="curve" smooth="yes"/>
      <point x="599" y="710"/>
      <point x="750" y="554"/>
      <point x="750" y="350" type="curve" smooth="yes"/>
      <point x="750" y="146"/>
      <point x="599" y="-10"/>
      <point x="395" y="-10" type="curve" smooth="yes"/>
      <point x="191" y="-10"/>
      <point x="40" y="146"/>
    </contour>
    <contour>
      <point x="230" y="807" type="line"/>
      <point x="240" y="856"/>
      <point x="289" y="889"/>
      <point x="334" y="889" type="curve" smooth="yes"/>
      <point x="399" y="889"/>
      <point x="404" y="842"/>
      <point x="458" y="842" type="curve" smooth="yes"/>
      <point x="477" y="842"/>
      <point x="494" y="858"/>
      <point x="514" y="890" type="curve"/>
      <point x="560" y="847" type="line"/>
      <point x="544" y="810"/>
      <point x="504" y="774"/>
      <point x="454" y="774" type="curve" smooth="yes"/>
      <point x="399" y="774"/>
      <point x="378" y="821"/>
      <point x="333" y="821" type="curve" smooth="yes"/>
      <point x="292" y="821"/>
      <point x="283" y="785"/>
      <point x="283" y="770" type="curve"/>
    </contour>
  </outline>
</glyph>
<glyph name="multiply" format="1">
  <advance width="596"/>
  <unicode hex="00D7"/>
  <outline>
    <contour>
      <point x="121" y="22" type="line"/>
      <point x="65" y="78" type="line"/>
      <point x="247" y="255" type="line"/>
      <point x="65" y="432" type="line"/>
      <point x="121" y="488" type="line"/>
      <point x="298" y="306" type="line"/>
      <point x="475" y="488" type="line"/>
      <point x="531" y="432" type="line"/>
      <point x="349" y="255" type="line"/>
      <point x="531" y="78" type="line"/>
      <point x="475" y="22" type="line"/>
      <point x="298" y="204" type="line"/>
    </contour>
  </outline>
</glyph>
<glyph name="Yacute" format="1">
  <advance width="561"/>
  <unicode hex="00DD"/>
  <outline>
    <contour>
      <point x="238" y="360" type="line"/>
      <point x="323" y="360" type="line"/>
      <point x="323" y="0" type="line"/>
      <point x="238" y="0" type="line"/>
    </contour>
    <contour>
      <point x="461" y="700" type="line"/>
      <point x="556" y="700" type="line"/>
      <point x="280" y="229" type="line"/>
      <point x="5" y="700" type="line"/>
      <point x="100" y="700" type="line"/>
      <point x="280" y="376" type="line"/>
    </contour>
    <contour>
      <point x="410" y="920" type="line"/>
      <point x="230" y="770" type="line"/>
      <point x="186" y="800" type="line"/>
      <point x="336" y="960" type="line"/>
    </contour>
  </outline>
</glyph>
<glyph name="eth" format="1">
  <advance width="576"/>
  <unicode hex="00F0"/>
  <outline>
    <contour>
      <point x="445" y="230" type="curve" smooth="yes"/>
      <point x="445" y="326"/>
      <point x="378" y="395"/>
      <point x="288" y="395" type="curve" smooth="yes"/>
      <point x="198" y="395"/>
      <point x="131" y="326"/>
      <point x="131" y="230" type="curve" smooth="yes"/>
      <point x="131" y="134"/>
      <point x="198" y="67"/>
      <point x="288" y="67" type="curve" smooth="yes"/>
      <point x="378" y="67"/>
      <point x="445" y="134"/>
    </contour>
    <contour>
      <point x="246" y="700" type="line"/>
      <point x="482" y="375" type="line" smooth="yes"/>
      <point x="509" y="338"/>
      <point x="526" y="287"/>
      <point x="526" y="230" type="curve" smooth="yes"/>
      <point x="526" y="86"/>
      <point x="423" y="-10"/>
      <point x="288" y="-10" type="curve" smooth="yes"/>
      <point x="153" y="-10"/>
      <point x="50" y="86"/>
      <point x="50" y="230" type="curve" smooth="yes"/>
      <point x="50" y="359"/>
      <point x="143" y="457"/>
      <point x="257" y="457" type="curve" smooth="yes"/>
      <point x="302" y="457"/>
      <point x="337" y="449"/>
      <point x="364" y="416" type="curve"/>
      <point x="358" y="411" type="line"/>
      <point x="139" y="700" type="line"/>
    </contour>
    <contour>
      <point x="155" y="520" type="line"/>
      <point x="155" y="585" type="line"/>
      <point x="455" y="585" type="line"/>
      <point x="455" y="520" type="line"/>
    </contour>
  </outline>
</glyph>
<glyph name="odieresis" format="1">
  <advance width="546"/>
  <unicode hex="00F6"/>
  <outline>
    <contour>
      <point x="35" y="230" type="curve" smooth="yes"/>
      <point x="35" y="369"/>
      <point x="138" y="470"/>
      <point x="273" y="470" type="curve" smooth="yes"/>
      <point x="408" y="470"/>
      <point x="511" y="369"/>
      <point x="511" y="230" type="curve" smooth="yes"/>
      <point x="511" y="91"/>
      <point x="408" y="-10"/>
      <point x="273" y="-10" type="curve" smooth="yes"/>
      <point x="138" y="-10"/>
      <point x="35" y="91"/>
    </contour>
    <contour>
      <point x="116" y="230" type="curve" smooth="yes"/>
      <point x="116" y="134"/>
      <point x="183" y="65"/>
      <point x="273" y="65" type="curve" smooth="yes"/>
      <point x="363" y="65"/>
      <point x="430" y="134"/>
      <point x="430" y="230" type="curve" smooth="yes"/>
      <point x="430" y="326"/>
      <point x="363" y="395"/>
      <point x="273" y="395" type="curve" smooth="yes"/>
      <point x="183" y="395"/>
      <point x="116" y="326"/>
    </contour>
    <contour>
      <point x="318" y="615" type="curve" smooth="yes"/>
      <point x="318" y="645"/>
      <point x="343" y="670"/>
      <point x="373" y="670" type="curve" smooth="yes"/>
      <point x="403" y="670"/>
      <point x="428" y="645"/>
      <point x="428" y="615" type="curve" smooth="yes"/>
      <point x="428" y="585"/>
      <point x="403" y="560"/>
      <point x="373" y="560" type="curve" smooth="yes"/>
      <point x="343" y="560"/>
      <point x="318" y="585"/>
    </contour>
    <contour>
      <point x="118" y="615" type="curve" smooth="yes"/>
      <point x="118" y="645"/>
      <point x="143" y="670"/>
      <point x="173" y="670" type="curve" smooth="yes"/>
      <point x="203" y="670"/>
      <point x="228" y="645"/>
      <point x="228" y="615" type="curve" smooth="yes"/>
      <point x="228" y="585"/>
      <point x="203" y="560"/>
      <point x="173" y="560" type="curve" smooth="yes"/>
      <point x="143" y="560"/>
      <point x="118" y="585"/>
    </contour>
  </outline>
</glyph>
<glyph name="Ecaron" format="1">
  <advance width="550"/>
  <unicode hex="011A"/>
  <outline>
    <contour>
      <point x="127" y="0" type="line"/>
      <point x="127" y="80" type="line"/>
      <point x="480" y="80" type="line"/>
      <point x="480" y="0" type="line"/>
    </contour>
    <contour>
      <point x="127" y="620" type="line"/>
      <point x="127" y="700" type="line"/>
      <point x="480" y="700" type="line"/>
      <point x="480" y="620" type="line"/>
    </contour>
    <contour>
      <point x="127" y="340" type="line"/>
      <point x="127" y="420" type="line"/>
      <point x="460" y="420" type="line"/>
      <point x="460" y="340" type="line"/>
    </contour>
    <contour>
      <point x="80" y="700" type="line"/>
      <point x="165" y="700" type="line"/>
      <point x="165" y="0" type="line"/>
      <point x="80" y="0" type="line"/>
    </contour>
    <contour>
      <point x="280" y="855" type="line"/>
      <point x="390" y="950" type="line"/>
      <point x="440" y="910" type="line"/>
      <point x="280" y="770" type="line"/>
      <point x="120" y="910" type="line"/>
      <point x="170" y="950" type="line"/>
    </contour>
  </outline>
</glyph>
<glyph name="gdotaccent" format="1">
  <advance width="570"/>
  <unicode hex="0121"/>
  <outline>
    <contour>
      <point x="456" y="230" type="curve"/>
      <point x="420" y="230" type="line"/>
      <point x="420" y="336"/>
      <point x="343" y="395"/>
      <point x="273" y="395" type="curve" smooth="yes"/>
      <point x="188" y="395"/>
      <point x="116" y="336"/>
      <point x="116" y="230" type="curve"/>
      <point x="35" y="230" type="line"/>
      <point x="35" y="379"/>
      <point x="138" y="470"/>
      <point x="263" y="470" type="curve" smooth="yes"/>
      <point x="378" y="470"/>
      <point x="456" y="379"/>
    </contour>
    <contour>
      <point x="420" y="230" type="curve"/>
      <point x="456" y="230" type="line"/>
      <point x="456" y="81"/>
      <point x="378" y="-10"/>
      <point x="263" y="-10" type="curve" smooth="yes"/>
      <point x="138" y="-10"/>
      <point x="35" y="81"/>
      <point x="35" y="230" type="curve"/>
      <point x="116" y="230" type="line"/>
      <point x="116" y="124"/>
      <point x="188" y="65"/>
      <point x="273" y="65" type="curve" smooth="yes"/>
      <point x="343" y="65"/>
      <point x="420" y="124"/>
    </contour>
    <contour>
      <point x="44" y="-30" type="curve"/>
      <point x="125" y="-30" type="line"/>
      <point x="125" y="-96"/>
      <point x="182" y="-155"/>
      <point x="272" y="-155" type="curve" smooth="yes"/>
      <point x="342" y="-155"/>
      <point x="420" y="-106"/>
      <point x="420" y="10" type="curve" smooth="yes"/>
      <point x="420" y="460" type="line"/>
      <point x="500" y="460" type="line"/>
      <point x="500" y="10" type="line" smooth="yes"/>
      <point x="500" y="-149"/>
      <point x="387" y="-230"/>
      <point x="272" y="-230" type="curve" smooth="yes"/>
      <point x="137" y="-230"/>
      <point x="44" y="-149"/>
    </contour>
    <contour>
      <point x="208" y="585" type="curve" smooth="yes"/>
      <point x="208" y="615"/>
      <point x="233" y="640"/>
      <point x="263" y="640" type="curve" smooth="yes"/>
      <point x="293" y="640"/>
      <point x="318" y="615"/>
      <point x="318" y="585" type="curve" smooth="yes"/>
      <point x="318" y="555"/>
      <point x="293" y="530"/>
      <point x="263" y="530" type="curve" smooth="yes"/>
      <point x="233" y="530"/>
      <point x="208" y="555"/>
    </contour>
  </outline>
</glyph>
<glyph name="Hcircumflex" format="1">
  <advance width="715"/>
  <unicode hex="0124"/>
  <outline>
    <contour>
      <point x="127" y="340" type="line"/>
      <point x="127" y="420" type="line"/>
      <point x="607" y="420" type="line"/>
      <point x="607" y="340" type="line"/>
    </contour>
    <contour>
      <point x="550" y="700" type="line"/>
      <point x="635" y="700" type="line"/>
      <point x="635" y="0" type="line"/>
      <point x="550" y="0" type="line"/>
    </contour>
    <contour>
      <point x="80" y="700" type="line"/>
      <point x="165" y="700" type="line"/>
      <point x="165" y="0" type="line"/>
      <point x="80" y="0" type="line"/>
    </contour>
    <contour>
      <point x="358" y="865" type="line"/>
      <point x="248" y="770" type="line"/>
      <point x="198" y="810" type="line"/>
      <point x="358" y="950" type="line"/>
      <point x="518" y="810" type="line"/>
      <point x="468" y="770" type="line"/>
    </contour>
  </outline>
</glyph>
<glyph name="Nacute" format="1">
  <advance width="775"/>
  <unicode hex="0143"/>
  <outline>
    <contour>
      <point x="85" y="605" type="line"/>
      <point x="80" y="735" type="line"/>
      <point x="690" y="95" type="line"/>
      <point x="695" y="-35" type="line"/>
    </contour>
    <contour>
      <point x="610" y="700" type="line"/>
      <point x="695" y="700" type="line"/>
      <point x="695" y="-35" type="line"/>
      <point x="610" y="75" type="line"/>
    </contour>
    <contour>
      <point x="80" y="735" type="line"/>
      <point x="165" y="625" type="line"/>
      <point x="165" y="0" type="line"/>
      <point x="80" y="0" type="line"/>
    </contour>
    <contour>
      <point x="530" y="915" type="line"/>
      <point x="350" y="765" type="line"/>
      <point x="305" y="795" type="line"/>
      <point x="455" y="955" type="line"/>
    </contour>
  </outline>
</glyph>
<glyph name="uni2010" format="1">
  <advance width="210"/>
  <unicode hex="2010"/>
  <outline>
    <contour>
      <point x="5" y="200" type="line"/>
      <point x="5" y="275" type="line"/>
      <point x="205" y="275" type="line"/>
      <point x="205" y="200" type="line"/>
    </contour>
  </outline>
</glyph>
<glyph name="dagger" format="1">
  <advance width="570"/>
  <unicode hex="2020"/>
  <outline>
    <contour>
      <point x="90" y="540" type="line"/>
      <point x="480" y="540" type="line"/>
      <point x="480" y="465" type="line"/>
      <point x="90" y="465" type="line"/>
    </contour>
    <contour>
      <point x="245" y="700" type="line"/>
      <point x="325" y="700" type="line"/>
      <point x="325" y="-150" type="line"/>
      <point x="245" y="-150" type="line"/>
    </contour>
  </outline>
</glyph>
<glyph name="guilsinglright" format="1">
  <advance width="350"/>
  <unicode hex="203A"/>
  <outline>
    <contour>
      <point x="240" y="275" type="line"/>
      <point x="310" y="255" type="line"/>
      <point x="120" y="20" type="line"/>
      <point x="70" y="65" type="line"/>
    </contour>
    <contour>
      <point x="310" y="255" type="line"/>
      <point x="240" y="225" type="line"/>
      <point x="70" y="445" type="line"/>
      <point x="120" y="490" type="line"/>
    </contour>
  </outline>
</glyph>
<glyph name="uni2089" format="1">
  <advance width="346"/>
  <unicode hex="2089"/>
  <outline>
    <contour>
      <point x="262" y="284" type="curve" smooth="yes"/>
      <point x="262" y="342"/>
      <point x="222" y="382"/>
      <point x="168" y="382" type="curve" smooth="yes"/>
      <point x="114" y="382"/>
      <point x="74" y="342"/>
      <point x="74" y="284" type="curve" smooth="yes"/>
      <point x="74" y="226"/>
      <point x="114" y="185"/>
      <point x="168" y="185" type="curve" smooth="yes"/>
      <point x="222" y="185"/>
      <point x="262" y="226"/>
    </contour>
    <contour>
      <point x="143" y="2" type="line"/>
      <point x="78" y="2" type="line"/>
      <point x="210" y="175" type="line"/>
      <point x="213" y="172" type="line"/>
      <point x="197" y="152"/>
      <point x="176" y="148"/>
      <point x="149" y="148" type="curve" smooth="yes"/>
      <point x="81" y="148"/>
      <point x="25" y="207"/>
      <point x="25" y="284" type="curve" smooth="yes"/>
      <point x="25" y="370"/>
      <point x="87" y="428"/>
      <point x="168" y="428" type="curve" smooth="yes"/>
      <point x="249" y="428"/>
      <point x="311" y="370"/>
      <point x="311" y="284" type="curve" smooth="yes"/>
      <point x="311" y="250"/>
      <point x="300" y="219"/>
      <point x="284" y="197" type="curve" smooth="yes"/>
    </contour>
  </outline>
</glyph>
